<?xml version="1.0" standalone="no"?><!DOCTYPE svg PUBLIC "-//W3C//DTD SVG 1.1//EN" "http://www.w3.org/Graphics/SVG/1.1/DTD/svg11.dtd"><svg t="1687419566711" class="icon" viewBox="0 0 1024 1024" version="1.1" xmlns="http://www.w3.org/2000/svg" p-id="40907" xmlns:xlink="http://www.w3.org/1999/xlink" width="200" height="200"><path d="M571.392 343.552h24.064l41.984 36.864V216.064h-111.104v163.328l45.056-35.84z" fill="#27A3FF" p-id="40908"></path><path d="M690.176 216.064h-10.24v210.432h-15.36l-80.896-40.448-65.024 51.2h-10.24v-204.8h-153.6a60.416 60.416 0 0 0-81.408 44.032v471.04a60.416 60.416 0 0 0 60.416 60.416h358.4a60.416 60.416 0 0 0 60.416-60.416V276.48a60.928 60.928 0 0 0-62.464-60.416z" fill="#27A3FF" p-id="40909"></path><path d="M921.6 0H102.4a102.4 102.4 0 0 0-102.4 102.4v819.2a102.4 102.4 0 0 0 102.4 102.4h819.2a102.4 102.4 0 0 0 102.4-102.4V102.4a102.4 102.4 0 0 0-102.4-102.4z m-130.048 747.52a102.4 102.4 0 0 1-102.4 102.4h-358.4a102.4 102.4 0 0 1-102.4-102.4V276.48a102.4 102.4 0 0 1 102.4-102.4h358.4a102.4 102.4 0 0 1 102.4 102.4z" fill="#27A3FF" p-id="40910"></path></svg>