<?xml version="1.0" standalone="no"?><!DOCTYPE svg PUBLIC "-//W3C//DTD SVG 1.1//EN" "http://www.w3.org/Graphics/SVG/1.1/DTD/svg11.dtd"><svg t="1687419360673" class="icon" viewBox="0 0 1024 1024" version="1.1" xmlns="http://www.w3.org/2000/svg" p-id="21429" xmlns:xlink="http://www.w3.org/1999/xlink" width="200" height="200"><path d="M849.170732 0c97.404878 0 174.829268 77.42439 174.829268 174.829268v674.341464c0 97.404878-77.42439 174.829268-174.829268 174.829268H174.829268c-97.404878 0-174.829268-77.42439-174.829268-174.829268V174.829268c0-97.404878 77.42439-174.829268 174.829268-174.829268h674.341464z m-109.892683 299.707317H259.746341c-12.487805 0-29.970732 14.985366-29.970731 29.970732v374.634146c0 12.487805 17.482927 29.970732 29.970731 29.970732h479.531708c12.487805 0 29.970732-14.985366 29.970731-29.970732v-374.634146c0-14.985366-17.482927-29.970732-29.970731-29.970732z m-422.087805 54.946342L499.512195 549.463415l182.321951-194.809756h32.468293v32.468292L499.512195 616.897561l-217.287805-229.77561v-32.468292h34.965854z" fill="#057514" p-id="21430"></path></svg>