<?xml version="1.0" standalone="no"?><!DOCTYPE svg PUBLIC "-//W3C//DTD SVG 1.1//EN" "http://www.w3.org/Graphics/SVG/1.1/DTD/svg11.dtd"><svg t="1687419192785" class="icon" viewBox="0 0 1024 1024" version="1.1" xmlns="http://www.w3.org/2000/svg" p-id="18029" xmlns:xlink="http://www.w3.org/1999/xlink" width="200" height="200"><path d="M1020.387704 821.02335c0 108.884932-89.103309 197.988241-197.988242 197.988241h-617.530656C95.983874 1018.839577 6.880564 929.908282 6.880564 821.02335v-617.530657C6.880564 94.607761 95.983874 5.504452 204.868806 5.504452h617.530656c108.884932 0 197.988241 89.103309 197.988242 197.988241v617.530657z m0 0" fill="#3b783f" p-id="18030" data-spm-anchor-id="a313x.7781069.0.i12" class="selected"></path><path d="M516.214346 802.273812c-162.209306 0-293.800101-41.455401-293.800101-92.715606 0-40.767344 83.770872-75.34218 199.708382-87.727196l3.096254 34.058793c-69.149672 9.976818-123.85016 30.274483-123.850159 53.668403 0 33.198723 109.22896 60.204939 214.845624 60.204939s214.845624-27.006215 214.845624-60.204939c0-23.737947-55.904586-44.207626-126.258357-54.012431l3.096254-33.88678c117.313623 12.213002 202.288594 46.959852 202.288594 88.071225-0.172014 51.088191-131.762809 92.543591-293.972115 92.543592z m-26.834202-80.158576v-133.48295h53.496389v133.48295h-53.496389z m-106.820762-267.137914h267.137913l80.158576 53.496389-80.158576 53.496388H382.559382v-106.992777z m-133.48295-106.820762l106.820763-53.496389h373.958676v106.820763H355.897195l-106.820763-53.324374z m240.303712-133.48295l51.776248-0.172014 1.720141 53.496388h-53.496389v-53.324374z m0 0" fill="#FFFFFF" p-id="18031"></path><path d="M822.399462 4.816395h-617.530656C98.392071 4.816395 11.008903 89.96338 7.052579 195.580044v632.151856c1.892155 51.088191 23.393919 97.359987 57.108684 131.590794L961.21485 62.097094C925.435915 26.662187 876.411893 4.816395 822.399462 4.816395z" opacity=".1" p-id="18032"></path></svg>