<?xml version="1.0" standalone="no"?><!DOCTYPE svg PUBLIC "-//W3C//DTD SVG 1.1//EN" "http://www.w3.org/Graphics/SVG/1.1/DTD/svg11.dtd"><svg t="1687419476393" class="icon" viewBox="0 0 1026 1024" version="1.1" xmlns="http://www.w3.org/2000/svg" p-id="32424" xmlns:xlink="http://www.w3.org/1999/xlink" width="200.390625" height="200"><path d="M898.015025 0H127.45335C57.138938 0 0 57.130958 0 127.45335v769.101281c0 70.322392 57.138938 127.45335 127.45335 127.453349h769.101281c70.314411 0 127.45335-57.130958 127.453349-127.453349V127.45335C1025.468375 57.130958 968.329437 0 898.015025 0zM278.336856 791.079024h-127.445369V663.625674h127.453349v127.45335z m0-213.887964h-127.445369V448.277315h127.453349v128.913745z m0-215.348359h-127.445369V234.389351h127.453349v127.45335z m597.700427 429.236323H377.954924V663.625674h496.613984v127.45335h1.468375z m0-213.887964H377.954924V448.277315h496.613984v128.913745h1.468375z m0-215.348359H377.954924V234.389351h496.613984v127.45335h1.468375z" fill="#17A29E" p-id="32425"></path></svg>