<?xml version="1.0" standalone="no"?><!DOCTYPE svg PUBLIC "-//W3C//DTD SVG 1.1//EN" "http://www.w3.org/Graphics/SVG/1.1/DTD/svg11.dtd"><svg t="1687418267556" class="icon" viewBox="0 0 1024 1024" version="1.1" xmlns="http://www.w3.org/2000/svg" p-id="999" xmlns:xlink="http://www.w3.org/1999/xlink" width="200" height="200"><path d="M1018.667563 822.743491c0 108.884932-89.103309 197.988241-197.988242 197.988241h-617.530656C94.263733 1020.559718 5.160423 931.628423 5.160423 822.743491v-617.530657C5.160423 96.327902 94.263733 7.224593 203.148665 7.224593h617.530656c108.884932 0 197.988241 89.103309 197.988242 197.988241v617.530657z m0 0" fill="#D9ED5F" p-id="1000"></path><path d="M780.772048 241.679825l-1.376113 1.032085c1.204099 0.344028 2.236183 0.688056 3.440282 1.032085l-2.064169-2.06417z" fill="#F5C720" p-id="1001"></path><path d="M438.807996 658.298001h146.211994V475.447002h136.751218L513.46212 223.274315 304.981018 475.447002h133.826978v182.850999z m-60.720981-219.317991l135.375105-160.833193 135.375105 160.833193h-100.284227v182.851h-73.105996V438.98001h-97.359987z" fill="#FFFFFF" p-id="1002"></path><path d="M731.403998 376.366874v33.198723s36.639006 22.18982 36.639006 51.604233v243.571981c0 29.586427-19.781623 63.129179-49.196036 63.129178H305.153032c-29.586427 0-49.196036-37.327062-49.196036-66.741474V457.729548c0-29.586427 36.639006-51.604233 36.639006-51.604233v-33.198723c-36.639006 0-73.105997 40.59533-73.105997 88.587267v243.57198c0 47.991937 37.843104 99.768184 85.835041 99.768184h413.521922c47.991937 0 85.835041-51.604233 85.835041-95.983873V464.954141c-0.172014-47.991937-36.81102-88.587267-73.278011-88.587267z" fill="#FFFFFF" p-id="1003"></path><path d="M820.679321 7.224593h-617.530656C96.67193 7.224593 9.288762 92.371577 5.332437 197.816227v632.151856c1.892155 51.088191 23.393919 97.359987 57.108685 131.590795L959.494709 64.505291C923.715774 29.070385 874.691752 7.224593 820.679321 7.224593z" opacity=".1" p-id="1004"></path></svg>