<?xml version="1.0" standalone="no"?><!DOCTYPE svg PUBLIC "-//W3C//DTD SVG 1.1//EN" "http://www.w3.org/Graphics/SVG/1.1/DTD/svg11.dtd"><svg t="1687414985811" class="icon" viewBox="0 0 1024 1024" version="1.1" xmlns="http://www.w3.org/2000/svg" p-id="3814" xmlns:xlink="http://www.w3.org/1999/xlink" width="200" height="200"><path d="M849.170732 0c97.404878 0 174.829268 77.42439 174.829268 174.829268v674.341464c0 97.404878-77.42439 174.829268-174.829268 174.829268H174.829268c-97.404878 0-174.829268-77.42439-174.829268-174.829268V174.829268c0-97.404878 77.42439-174.829268 174.829268-174.829268h674.341464zM512 219.785366c-37.463415 0-67.434146 24.97561-79.921951 57.443902h-119.882927c-32.468293 0-57.443902 24.97561-57.443902 57.443903v399.609756c0 32.468293 24.97561 57.443902 57.443902 57.443902h399.609756c32.468293 0 57.443902-24.97561 57.443902-57.443902v-399.609756c0-32.468293-24.97561-57.443902-57.443902-57.443903h-119.882927c-9.990244-34.965854-42.458537-57.443902-79.921951-57.443902z m132.370732 187.317073l39.960975 39.960976-229.775609 227.278048-114.887805-114.887804 39.960975-39.960976 74.92683 72.429268 189.814634-184.819512z m-132.370732-129.873171c14.985366 0 27.473171 12.487805 27.473171 27.473171s-12.487805 27.473171-27.473171 27.473171-27.473171-12.487805-27.473171-27.473171 12.487805-27.473171 27.473171-27.473171z" fill="#6966FD" p-id="3815"></path></svg>