<?xml version="1.0" standalone="no"?><!DOCTYPE svg PUBLIC "-//W3C//DTD SVG 1.1//EN" "http://www.w3.org/Graphics/SVG/1.1/DTD/svg11.dtd"><svg t="1687415503821" class="icon" viewBox="0 0 1024 1024" version="1.1" xmlns="http://www.w3.org/2000/svg" p-id="6833" xmlns:xlink="http://www.w3.org/1999/xlink" width="200" height="200"><path d="M873.472 0H150.528C67.584 0 0 67.584 0 150.528v722.944C0 956.416 67.584 1024 150.528 1024h722.944c82.944 0 150.528-67.584 150.528-150.528V150.528C1024 67.584 956.416 0 873.472 0zM650.24 427.008h148.992c11.776 0 21.504 5.632 21.504 19.456s-9.728 19.456-21.504 19.456H650.24c-11.776 0-21.504-5.632-21.504-19.456s10.24-19.456 21.504-19.456z m168.448 104.448c0 13.312-9.728 19.456-21.504 19.456H680.96c-11.776 0-21.504-5.632-21.504-19.456s9.728-19.456 21.504-19.456h118.272c11.776 0 19.456 5.632 19.456 19.456z m-106.496 191.488c0 27.136-23.04 44.544-50.176 44.544H251.392c-27.136 0-50.176-17.408-50.176-44.544v-11.776c0-25.088 19.456-46.592 42.496-56.32l102.4-44.544s27.136-9.728 34.816-17.408c4.096-5.632 5.632-25.088 0-36.864S323.072 476.672 323.072 420.352C323.072 329.216 382.976 256 456.704 256c73.728 0 133.632 73.728 133.632 164.352 0 57.856-57.856 123.904-61.952 139.264-5.632 15.36-5.632 27.136 0 32.768 7.68 9.728 29.184 17.408 29.184 17.408l112.128 44.544c23.04 7.68 42.496 30.72 42.496 56.32v12.288z m89.088-92.672H721.92c-11.776 0-21.504-5.632-21.504-19.456 0-13.312 9.728-19.456 21.504-19.456h79.36c11.776 0 21.504 5.632 21.504 19.456 0 13.312-9.728 19.456-21.504 19.456z" fill="#4545EF" p-id="6834"></path></svg>