<?xml version="1.0" standalone="no"?><!DOCTYPE svg PUBLIC "-//W3C//DTD SVG 1.1//EN" "http://www.w3.org/Graphics/SVG/1.1/DTD/svg11.dtd"><svg t="1687415043234" class="icon" viewBox="0 0 1024 1024" version="1.1" xmlns="http://www.w3.org/2000/svg" p-id="3970" xmlns:xlink="http://www.w3.org/1999/xlink" width="200" height="200"><path d="M849.170732 0c97.404878 0 174.829268 77.42439 174.829268 174.829268v674.341464c0 97.404878-77.42439 174.829268-174.829268 174.829268H174.829268c-97.404878 0-174.829268-77.42439-174.829268-174.829268V174.829268c0-97.404878 77.42439-174.829268 174.829268-174.829268h674.341464z m-224.780488 252.253659H257.24878c-17.482927 2.497561-32.468293 22.478049-32.468292 42.458536v444.565854c2.497561 22.478049 17.482927 39.960976 34.965853 39.960975H724.292683c17.482927-2.497561 32.468293-19.980488 32.468293-42.458536V382.126829c-2.497561-22.478049-17.482927-39.960976-34.965854-39.960975h-34.965854v392.117073h-27.47317V294.712195c-4.995122-24.97561-19.980488-42.458537-34.965854-42.458536z m-64.936585 374.634146v42.458536H294.712195v-42.458536h264.741464z m0-87.414634v42.458536H294.712195v-42.458536h264.741464z m-132.370732-174.829269v132.370732h-132.370732v-132.370732h132.370732z m127.37561 87.414635l4.995122 42.458536h-99.902439v-42.458536h94.907317z m0-87.414635l4.995122 42.458537h-99.902439v-42.458537h94.907317z" fill="#38B781" p-id="3971"></path></svg>