<?xml version="1.0" standalone="no"?><!DOCTYPE svg PUBLIC "-//W3C//DTD SVG 1.1//EN" "http://www.w3.org/Graphics/SVG/1.1/DTD/svg11.dtd"><svg t="1687414669049" class="icon" viewBox="0 0 1024 1024" version="1.1" xmlns="http://www.w3.org/2000/svg" p-id="3127" xmlns:xlink="http://www.w3.org/1999/xlink" width="200" height="200"><path d="M0 0m273.066667 0l477.866666 0q273.066667 0 273.066667 273.066667l0 477.866666q0 273.066667-273.066667 273.066667l-477.866666 0q-273.066667 0-273.066667-273.066667l0-477.866666q0-273.066667 273.066667-273.066667Z" fill="#5193F3" p-id="3128"></path><path d="M750.933333 802.133333h-477.866666a17.066667 17.066667 0 0 1-17.066667-17.066666V273.066667a17.066667 17.066667 0 0 1 17.066667-17.066667h102.4a67.925333 67.925333 0 0 0 20.0192 48.264533A67.805867 67.805867 0 0 0 443.733333 324.266667h136.533334a68.266667 68.266667 0 0 0 68.266666-68.266667h102.4a17.066667 17.066667 0 0 1 17.066667 17.066667v512a17.066667 17.066667 0 0 1-17.066667 17.066666z m-377.5488-158.600533a16.9472 16.9472 0 0 0-12.066133 5.000533 16.9472 16.9472 0 0 0-5.000533 12.066134 16.9472 16.9472 0 0 0 5.000533 12.066133l24.149333 24.149333a16.9472 16.9472 0 0 0 12.049067 5.000534 16.964267 16.964267 0 0 0 12.066133-5.000534l48.2816-48.2816a16.930133 16.930133 0 0 0 5.000534-12.066133 16.930133 16.930133 0 0 0-5.000534-12.066133 16.9472 16.9472 0 0 0-12.066133-5.000534 16.9472 16.9472 0 0 0-12.066133 5.000534l-36.215467 36.215466-12.066133-12.0832a16.9472 16.9472 0 0 0-12.066134-5.000533zM529.066667 648.533333a17.066667 17.066667 0 0 0-17.066667 17.066667 17.066667 17.066667 0 0 0 17.066667 17.066667h136.533333a17.066667 17.066667 0 0 0 17.066667-17.066667 17.066667 17.066667 0 0 0-17.066667-17.066667z m-155.682134-107.400533a16.9472 16.9472 0 0 0-12.049066 5.000533 17.066667 17.066667 0 0 0 0 24.149334l24.149333 24.149333a16.964267 16.964267 0 0 0 12.066133 4.983467 16.930133 16.930133 0 0 0 12.049067-4.983467l48.2816-48.298667a16.930133 16.930133 0 0 0 5.000533-12.049066 16.964267 16.964267 0 0 0-5.000533-12.0832 16.9472 16.9472 0 0 0-12.066133-5.000534 16.9472 16.9472 0 0 0-12.066134 5.000534l-36.215466 36.215466-12.066134-12.066133a16.9472 16.9472 0 0 0-12.0832-5.0176zM529.066667 546.133333a17.066667 17.066667 0 0 0-17.066667 17.066667 17.066667 17.066667 0 0 0 17.066667 17.066667h136.533333a17.066667 17.066667 0 0 0 17.066667-17.066667 17.066667 17.066667 0 0 0-17.066667-17.066667z m-155.682134-107.383466a16.964267 16.964267 0 0 0-12.066133 5.000533 16.964267 16.964267 0 0 0-5.000533 12.0832 16.913067 16.913067 0 0 0 5.000533 12.049067l24.149333 24.149333a16.964267 16.964267 0 0 0 12.066134 4.983467 16.930133 16.930133 0 0 0 12.049066-4.983467l48.2816-48.2816a17.066667 17.066667 0 0 0 0-24.132267 16.930133 16.930133 0 0 0-12.066133-5.000533 16.930133 16.930133 0 0 0-12.066133 5.000533l-36.215467 36.1984-12.066133-12.066133a16.913067 16.913067 0 0 0-12.049067-5.0176zM529.066667 443.733333a17.066667 17.066667 0 0 0-17.066667 17.066667 17.066667 17.066667 0 0 0 17.066667 17.066667h136.533333a17.066667 17.066667 0 0 0 17.066667-17.066667 17.066667 17.066667 0 0 0-17.066667-17.066667z m51.2-153.6h-136.533334a34.133333 34.133333 0 0 1-34.133333-34.133333 34.133333 34.133333 0 0 1 34.133333-34.133333h136.533334a34.133333 34.133333 0 0 1 34.133333 34.133333 34.133333 34.133333 0 0 1-34.133333 34.133333z" fill="#FFFFFF" p-id="3129"></path></svg>